Coordinates
version=1
nRows=17
nColumns=34
inDegrees=yes

Units are S.I. units (second, meters, Newtons, ...)
If the header above contains a line with 'inDegrees', this indicates whether rotational values are in degrees (yes) or radians (no).

endheader
time	pelvis_tilt	pelvis_list	pelvis_rotation	pelvis_tx	pelvis_ty	pelvis_tz	hip_flexion_l	hip_adduction_l	hip_rotation_l	hip_flexion_r	hip_adduction_r	hip_rotation_r	knee_angle_l_beta	knee_angle_r_beta	knee_angle_l	knee_angle_r	ankle_angle_l	ankle_angle_r	subtalar_angle_l	subtalar_angle_r	mtp_angle_l	mtp_angle_r	lumbar_ext	lumbar_bend	lumbar_rota	shoulder_flexion_r	shoulder_adduction_r	shoulder_rotation_r	elbow_flexion_r	shoulder_flexion_l	shoulder_adduction_l	shoulder_rotation_l	elbow_flexion_l
      0.50000000	     11.88739208	     -2.02076284	      1.97945617	      0.47102089	      1.00315641	     -0.24374926	    -26.93468952	      2.48713087	     -2.00706999	      8.00067530	      0.96230917	    -13.26193245	     -0.08447576	      0.34835072	      4.84010477	    -19.95902622	      3.93305412	      3.04035938	      0.00000000	      0.00000000	      0.00000000	      0.00000000	    -22.71236307	      4.96954334	     -4.56522534	     -3.49106643	     -2.77209622	     -5.05178321	     29.63287342	      4.89475279	     -6.61452942	      3.89891893	     49.82773534
      0.51000000	     11.50624621	     -1.77127435	      1.80521897	      0.48178686	      1.00119533	     -0.24356189	    -27.03849655	      2.87703773	     -2.35215543	      7.98660391	      0.98577606	    -13.17606285	     -0.07860346	      0.28453884	      4.50364634	    -16.30287467	      4.17082625	      3.08641938	      0.00000000	      0.00000000	      0.00000000	      0.00000000	    -22.30123084	      4.78504876	     -4.60759599	     -3.69104688	     -2.74470734	     -5.13680759	     29.64012732	      5.00781159	     -6.71410842	      4.03846432	     50.34964975
      0.52000000	     11.92771735	     -2.26608168	      2.02460616	      0.49306464	      1.00052298	     -0.24367062	    -28.06247914	      2.32530996	     -2.73004979	      6.76687573	      1.84388333	    -13.82460528	     -0.07398876	      0.21357611	      4.23924360	    -12.23700947	      4.74569023	      2.11727478	      0.00000000	      0.00000000	      0.00000000	      0.00000000	    -22.71755266	      5.49085724	     -4.65316819	     -3.82468821	     -2.78748769	     -5.27913118	     29.55859115	      5.11244788	     -6.72119454	      4.07641371	     50.96493782
      0.53000000	     11.93485929	     -2.29797137	      2.04530970	      0.50422798	      0.99914477	     -0.24351687	    -28.55055423	      2.31071982	     -2.99531675	      6.16673462	      2.18959573	    -13.99242730	     -0.06611216	      0.15450913	      3.78794758	     -8.85272102	      5.12689566	      1.59269797	      0.00000000	      0.00000000	      0.00000000	      0.00000000	    -22.71901370	      5.65082777	     -4.69595384	     -3.97860343	     -2.78496553	     -5.37555148	     29.46804873	      5.16795831	     -6.77548168	      4.15795447	     51.49385694
      0.54000000	     11.76600898	     -2.19825460	      1.97134143	      0.51546416	      0.99742703	     -0.24326058	    -28.81058926	      2.46332176	     -3.29725880	      5.83058792	      2.37134016	    -13.80952203	     -0.05652735	      0.10465875	      3.23877860	     -5.99650471	      5.47987279	      1.29938698	      0.00000000	      0.00000000	      0.00000000	      0.00000000	    -22.49103728	      5.65635690	     -4.78826427	     -4.09546680	     -2.78733212	     -5.43428107	     29.42767941	      5.15802565	     -6.83202560	      4.27596189	     51.87073887
      0.55000000	     12.02842185	     -2.43490633	      2.11088114	      0.52701670	      0.99643983	     -0.24314851	    -29.54528751	      2.14716830	     -3.46768598	      4.94559110	      2.92539101	    -14.16138690	     -0.04679389	      0.05845609	      2.68109253	     -3.34928699	      5.87695471	      0.50105462	      0.00000000	      0.00000000	      0.00000000	      0.00000000	    -22.73006337	      6.05356487	     -4.79383819	     -4.23004818	     -2.84699204	     -5.41141368	     29.28482043	      5.15858629	     -6.79452414	      4.22769697	     52.35838965
      0.56000000	     11.87216877	     -2.34696020	      2.04387193	      0.53850211	      0.99481999	     -0.24277422	    -29.76600726	      2.23137258	     -3.61888046	      4.70808912	      3.06733281	    -13.80716484	     -0.03469135	      0.02681015	      1.98766801	     -1.53610856	      6.06902996	      0.40983439	      0.00000000	      0.00000000	      0.00000000	      0.00000000	    -22.52041303	      6.04399215	     -4.76892714	     -4.36564748	     -2.88245861	     -5.41998904	     29.16968061	      5.11137119	     -6.78477267	      4.28188007	     52.64336418
      0.57000000	     12.19418406	     -2.62812028	      2.22280175	      0.55017420	      0.99410622	     -0.24258758	    -30.48379197	      1.79915882	     -3.66115817	      3.86618953	      3.61903353	    -13.85365440	     -0.02182620	     -0.00155099	      1.25054933	      0.08886521	      6.40445410	     -0.52363909	      0.00000000	      0.00000000	      0.00000000	      0.00000000	    -22.82532662	      6.51869960	     -4.90636300	     -4.36204786	     -2.95843989	     -5.25312956	     28.96349673	      4.98113103	     -6.75157506	      4.15109265	     53.00919909
      0.58000000	     12.22680790	     -2.70923870	      2.20422995	      0.56173690	      0.99304882	     -0.24215688	    -30.80528490	      1.63739624	     -3.67918801	      3.51726172	      3.88582995	    -13.36530739	     -0.00592278	     -0.01649638	      0.33935049	      0.94517304	      6.58606821	     -1.00188761	      0.00000000	      0.00000000	      0.00000000	      0.00000000	    -22.84493507	      6.70746488	     -4.86450140	     -4.37851905	     -3.02903574	     -5.18043073	     28.73257965	      4.87423344	     -6.68934700	      4.10926035	     53.20474882
      0.59000000	     12.34896899	     -2.88577089	      2.26315006	      0.57349215	      0.99229773	     -0.24172961	    -31.18720605	      1.31491629	     -3.65638102	      3.12477262	      4.22374249	    -12.85791491	      0.01125601	     -0.02291289	     -0.64492192	      1.31281171	      6.63347056	     -1.54420602	      0.00000000	      0.00000000	      0.00000000	      0.00000000	    -22.94201044	      7.01553285	     -4.85231465	     -4.37429891	     -3.10939514	     -5.04898767	     28.48490514	      4.71389160	     -6.59051770	      4.01412062	     53.32779397
      0.60000000	     12.43599705	     -3.09110374	      2.35756599	      0.58535947	      0.99167835	     -0.24133277	    -31.50407031	      0.92267938	     -3.45003918	      2.85709898	      4.54530913	    -12.22423542	      0.02882718	     -0.02023483	     -1.65167547	      1.15937053	      6.27369977	     -1.90543621	      0.00000000	      0.00000000	      0.00000000	      0.00000000	    -22.98853579	      7.35947184	     -4.81687869	     -4.39613628	     -3.19159158	     -4.99030353	     28.28010769	      4.53736423	     -6.46289029	      3.96605543	     53.34891134
      0.61000000	     12.66652579	     -3.36027733	      2.41915390	      0.59724884	      0.99147062	     -0.24079838	    -31.84500730	      0.46670632	     -3.45097750	      2.46916291	      4.92736814	    -11.60427796	      0.05131100	     -0.01226630	     -2.93990346	      0.70280709	      6.18045487	     -2.71038530	      0.00000000	      0.00000000	      0.00000000	      0.00000000	    -23.20659047	      7.75666261	     -4.79203451	     -4.28199080	     -3.30201692	     -4.71954327	     27.90780471	      4.28308136	     -6.30430478	      3.71389788	     53.38087837
      0.62000000	     12.83110922	     -3.62824575	      2.58290302	      0.60945655	      0.99137993	     -0.24036426	    -32.10746587	     -0.06378381	     -3.18970015	      2.17911625	      5.27353751	    -10.85440251	      0.07307407	      0.00152659	     -4.18683558	     -0.08746718	      5.46184763	     -3.21047542	      0.00000000	      0.00000000	      0.00000000	      0.00000000	    -23.30407725	      8.18146626	     -4.80046913	     -4.26738470	     -3.38067177	     -4.64437709	     27.68394111	      3.98939746	     -6.13925381	      3.63197067	     53.25570683
      0.63000000	     13.06594834	     -3.90155965	      2.72645170	      0.62159125	      0.99163507	     -0.23986813	    -32.29291467	     -0.60027044	     -3.06982445	      1.87642321	      5.61842009	    -10.14380999	      0.09943529	      0.01997296	     -5.69722256	     -1.14436610	      4.66402620	     -3.82940651	      0.00000000	      0.00000000	      0.00000000	      0.00000000	    -23.49656125	      8.57970919	     -4.77211456	     -4.19133278	     -3.45261386	     -4.54448833	     27.39982038	      3.68856359	     -5.91629361	      3.48099033	     53.06413698
      0.64000000	     12.98069598	     -4.07245971	      2.54782606	      0.63361994	      0.99164002	     -0.23894225	    -31.92438492	     -0.88144675	     -3.43502628	      2.06824491	      5.81728003	     -9.16956879	      0.13336310	      0.04572841	     -7.64114267	     -2.62004481	      3.93985006	     -4.35544140	      0.00000000	      0.00000000	      0.00000000	      0.00000000	    -23.37838884	      8.78600781	     -4.92818025	     -3.72049829	     -3.64385375	     -3.40040165	     26.56549884	      2.98680571	     -5.65615057	      2.53069990	     53.11245095
      0.65000000	     13.30040751	     -4.33386486	      2.75923323	      0.64599191	      0.99247457	     -0.23846653	    -31.94615785	     -1.47774380	     -3.41104726	      1.63894943	      6.14667487	     -8.53351918	      0.16651930	      0.06700823	     -9.54085331	     -3.83928871	      2.59361104	     -4.82291122	      0.00000000	      0.00000000	      0.00000000	      0.00000000	    -23.62110418	      9.19929533	     -4.91314581	     -3.65690163	     -3.70020331	     -3.38555250	     26.34332562	      2.62015234	     -5.41505945	      2.40942657	     52.76743848
      0.66000000	     13.61324419	     -4.54463851	      2.93314124	      0.65825788	      0.99353823	     -0.23788147	    -31.74347061	     -2.03491900	     -3.67729434	      1.22526746	      6.42600666	     -7.96398370	      0.20593163	      0.08945273	    -11.79901308	     -5.12526406	      1.02030906	     -5.17026676	      0.00000000	      0.00000000	      0.00000000	      0.00000000	    -23.87955558	      9.53433554	     -4.85974224	     -3.55630463	     -3.75767514	     -3.35313909	     26.09889893	      2.24414027	     -5.16636551	      2.20788697	     52.34940194
